<svg aria-hidden="true" style="position: absolute; width: 0; height: 0; overflow: hidden;" version="1.1" xmlns="http://www.w3.org/2000/svg" xmlns:xlink="http://www.w3.org/1999/xlink">
<defs>
<symbol id="icon-2024402" viewBox="0 0 46 32">
<path d="M27.724 0.043c-0.011 0.025-0.108 0.657-0.224 1.405l-0.206 1.362-0.22 0.058c-0.574 0.152-1.607 0.39-2.062 0.473-0.596 0.108-0.581 0.105-0.903 0.242-1.344 0.582-2.644 1.882-2.871 2.879-0.065 0.282-0.029 0.932 0.072 1.25 0.314 0.997 1.141 1.9 2.445 2.676 0.415 0.249 0.415 0.242-0.040 0.289-0.22 0.022-0.271 0.043-0.524 0.224-0.401 0.285-0.867 0.668-1.365 1.123-1.567 1.427-2.629 3.106-2.882 4.554-0.076 0.433-0.079 1.253-0.004 1.781 0.267 1.867 1.242 4.154 2.684 6.299l0.296 0.444h-1.329l-0.592-0.766c-1.495-1.939-2.019-2.716-2.481-3.688-0.343-0.722-0.553-1.391-0.672-2.16-0.076-0.506-0.076-1.34 0-1.69 0.202-0.921 0.675-1.835 1.445-2.799 0.321-0.408 1.437-1.539 1.517-1.539 0.043 0 0.166-0.144 0.166-0.199 0-0.014-0.047-0.014-0.105 0-0.098 0.022-0.137-0.004-0.426-0.296-0.802-0.798-1.329-1.568-1.571-2.304-0.116-0.354-0.116-0.874 0-1.224 0.253-0.762 0.881-1.589 1.777-2.348l0.163-0.137-0.144 0.018c-0.079 0.011-0.787 0.159-1.571 0.329s-1.499 0.318-1.586 0.332l-0.159 0.025 0.025-0.646c0.011-0.354 0.025-0.849 0.025-1.098 0.004-0.256 0.047-0.823 0.108-1.315 0.058-0.477 0.098-0.874 0.087-0.881-0.047-0.047-0.076 0.094-0.217 1.026l-0.148 0.993-1.221 1.221c-1.188 1.188-1.228 1.224-1.409 1.261-0.101 0.025-0.459 0.090-0.798 0.152-0.545 0.098-0.639 0.126-0.867 0.256-0.657 0.376-1.448 1.044-1.824 1.542-0.228 0.3-0.451 0.744-0.531 1.055-0.065 0.256-0.076 0.762-0.022 0.993l0.036 0.144-3.218 3.243c-1.77 1.781-3.229 3.24-3.243 3.24s-0.697-0.498-1.517-1.109c-1.318-0.979-1.683-1.228-1.607-1.109 0.011 0.018 0.661 0.563 1.448 1.206l1.427 1.17-0.3 0.289c-0.74 0.722-1.040 1.488-1.040 2.676 0 2.503 1.336 3.962 3.879 4.24 0.737 0.083 1.459 0.032 2.322-0.163 0.755-0.166 1.539-0.43 2.037-0.683l0.246-0.123 0.209 0.332c0.881 1.383 1.929 2.792 2.727 3.655 0.892 0.972 1.683 2.033 2.456 3.305l0.278 0.451 6.552 0.011c3.605 0.004 7.397-0.007 8.43-0.025 2.095-0.036 2.091-0.036 2.611-0.311 0.975-0.509 1.795-1.813 2.246-3.558 0.061-0.249 0.134-0.491 0.159-0.542 0.058-0.123 0.448-0.386 0.701-0.477 0.163-0.058 0.354-0.079 0.928-0.105 1.004-0.047 1.221-0.119 1.669-0.549 0.293-0.282 0.571-0.69 0.986-1.452 0.39-0.719 0.516-0.899 0.73-1.051 0.361-0.26 0.744-0.397 1.676-0.592 0.712-0.152 0.863-0.213 0.986-0.412 0.105-0.17 0.163-0.451 0.134-0.65-0.022-0.134-0.040-0.166-0.087-0.152-0.032 0.007-0.116 0.029-0.184 0.040l-0.123 0.025 0.025-0.264c0.166-1.672 1.185-4.8 2.738-8.39 0.372-0.867 0.397-0.975 0.217-0.954-0.079 0.007-0.116 0.054-0.213 0.253-0.098 0.202-0.141 0.256-0.271 0.321-0.188 0.094-0.589 0.386-0.712 0.516l-0.087 0.094h-4.135l-0.112 0.090c-0.058 0.051-0.144 0.177-0.191 0.282s-0.119 0.26-0.163 0.35c-0.043 0.087-0.072 0.166-0.065 0.173s0.878 0.014 1.932 0.011l1.918-0.007-0.083 0.126-0.083 0.13-3.861 0.018-0.188 0.415c-0.105 0.228-0.191 0.43-0.195 0.444 0 0.014 0.845 0.022 1.878 0.018 1.033-0.007 1.878 0 1.878 0.011s-0.018 0.072-0.040 0.137l-0.040 0.112h-3.803l-0.152 0.321c-0.087 0.173-0.155 0.368-0.155 0.43v0.116l1.853 0.007c1.015 0.004 1.896 0.004 1.954 0.004 0.101-0.004 0.101-0.004 0.079 0.163-0.123 0.935-0.116 2.149 0.014 3.254 0.025 0.22 0.014 0.34-0.054 0.704-0.047 0.238-0.105 0.6-0.126 0.798-0.025 0.199-0.047 0.365-0.051 0.368-0.004 0.007-0.578 0.101-1.376 0.228-0.419 0.065-1.976 0.256-1.99 0.242-0.072-0.069-0.733-1.257-0.972-1.741-0.459-0.935-0.693-1.611-0.874-2.546-0.090-0.455-0.098-0.556-0.098-1.481-0.004-1.055 0.022-1.304 0.217-2.254 0.173-0.856 0.433-1.6 0.932-2.694 0.726-1.582 2.048-3.742 3.467-5.663 0.242-0.325 0.459-0.621 0.484-0.661 0.029-0.036 0.043-0.083 0.036-0.105s-0.336 0.332-0.733 0.784c-1.896 2.16-4.963 5.587-4.984 5.566-0.004-0.007 0.069-0.946 0.166-2.088 0.101-1.217 0.159-2.091 0.141-2.109-0.040-0.040-0.054 0.032-0.123 0.574-0.126 1.015-0.495 3.836-0.513 3.93-0.022 0.101-1 1.188-2.832 3.149-1.607 1.719-3.355 3.54-3.377 3.518-0.007-0.007-0.058-0.274-0.112-0.592-0.090-0.506-0.101-0.672-0.105-1.336 0-0.65 0.011-0.816 0.083-1.163 0.462-2.293 2.181-5.020 4.872-7.744 0.404-0.408 0.722-0.751 0.712-0.766-0.011-0.011-0.13 0.022-0.264 0.072-0.834 0.318-2.106 0.769-2.178 0.769-0.047 0-0.256-0.065-0.462-0.148-1.181-0.459-1.976-1.026-2.268-1.614-0.126-0.264-0.134-0.289-0.134-0.639 0.004-0.238 0.025-0.441 0.069-0.596 0.3-1.044 1.217-2.138 2.994-3.565 0.311-0.253 0.567-0.473 0.567-0.488 0-0.054-0.123-0.029-1.261 0.274-1.188 0.318-1.752 0.466-3.11 0.823-1.698 0.441-2.247 0.578-2.265 0.556-0.022-0.018 0.217-2.319 0.267-2.615 0.018-0.112-0.047-0.173-0.076-0.072zM16.058 5.887c-0.072 0.462-0.137 0.849-0.148 0.86-0.018 0.018-1.701 0.365-1.788 0.368-0.029 0 0.415-0.47 0.993-1.047 0.574-0.574 1.051-1.040 1.055-1.033 0.007 0.007-0.043 0.39-0.112 0.852zM16.181 6.696c-0.043 0.043-0.047-0.105-0.007-0.361l0.025-0.177 0.011 0.249c0.007 0.141-0.007 0.267-0.029 0.289zM29.515 7.729c0.805 0.054 1.752 0.166 2.593 0.311 0.408 0.072 0.802 0.137 0.878 0.148 0.072 0.011 0.134 0.033 0.134 0.043 0 0.025-1.701 0.596-2.528 0.849-1.325 0.405-3.839 1.073-3.883 1.029-0.018-0.022 0.228-2.312 0.253-2.337 0.004-0.007 0.181-0.025 0.383-0.040 0.56-0.043 1.546-0.043 2.171-0.004zM26.496 7.935c-0.011 0.058-0.094 0.596-0.188 1.203s-0.173 1.105-0.177 1.112c-0.014 0.014-1.409 0.285-1.629 0.314l-0.188 0.025-0.108-0.285c-0.502-1.304-0.011-1.965 1.763-2.373 0.516-0.119 0.553-0.119 0.527 0.004zM15.010 10.947l0.274 0.043-0.018 0.148c-0.065 0.451-0.318 2.109-0.332 2.174-0.014 0.069-0.069 0.083-0.567 0.155-0.303 0.040-0.697 0.094-0.878 0.116-0.423 0.047-1.488 0.051-1.614 0.004-0.076-0.033-0.101-0.076-0.134-0.217-0.155-0.733-0.022-1.315 0.405-1.734 0.39-0.383 0.867-0.582 1.687-0.708 0.206-0.029 0.921-0.018 1.177 0.018zM15.906 11.128l0.177 0.043-0.022 0.726c-0.014 0.401-0.025 0.849-0.025 1v0.274l-0.188 0.040c-0.105 0.025-0.271 0.054-0.368 0.069l-0.173 0.022 0.022-0.105c0.011-0.058 0.069-0.527 0.13-1.044 0.134-1.13 0.13-1.112 0.209-1.087 0.033 0.011 0.141 0.040 0.238 0.061zM17.051 11.453c0.654 0.202 1.838 0.621 2.301 0.809l0.202 0.083-0.199 0.054c-0.34 0.098-1.795 0.448-2.416 0.582-0.329 0.072-0.632 0.141-0.675 0.148l-0.076 0.018 0.018-0.878c0.018-0.954 0.025-1.037 0.098-1.037 0.025 0 0.361 0.098 0.748 0.22zM9.784 11.843c0.181 0.358 0.502 0.762 0.82 1.033 0.264 0.224 0.74 0.545 0.961 0.65l0.13 0.065-0.3 0.188c-1.163 0.73-1.94 1.737-2.297 2.972-0.195 0.686-0.231 1.759-0.072 2.431 0.336 1.463 1.369 2.991 2.792 4.139 0.137 0.112 0.242 0.209 0.231 0.217-0.018 0.018-1.856-0.451-1.918-0.488-0.195-0.119-3.095-2.304-3.121-2.348-0.134-0.256-0.141-1.582-0.011-2.048 0.191-0.693 0.563-1.275 1.018-1.589 0.079-0.054 0.137-0.112 0.126-0.126-0.033-0.051-1.022-0.076-1.589-0.036-1.094 0.072-2.008 0.267-2.691 0.567-0.184 0.079 0-0.116 2.514-2.633 1.492-1.495 2.828-2.846 2.976-3.001 0.144-0.152 0.271-0.278 0.278-0.278 0.004 0 0.076 0.126 0.152 0.285zM45.692 13.262c-0.018 0.047-0.116 0.278-0.22 0.516-0.567 1.318-1.192 2.933-1.614 4.19-0.253 0.748-0.693 2.228-0.701 2.358-0.014 0.195-0.069-0.34-0.105-1.026-0.090-1.665 0.119-3.074 0.585-3.922 0.455-0.823 1.268-1.719 1.907-2.098 0.090-0.054 0.166-0.098 0.17-0.098s-0.004 0.036-0.022 0.079zM26.080 20.157c0.206 0.018 0.531 0.069 0.719 0.108 0.34 0.072 1.441 0.423 1.611 0.513 0.090 0.047 0.076 0.058-0.86 0.986-0.899 0.885-2.311 2.225-2.373 2.247-0.025 0.007 0.376-3.753 0.412-3.85 0.018-0.054 0.025-0.054 0.491-0.004zM24.581 20.287c-0.011 0.058-0.112 0.686-0.22 1.401-0.213 1.372-0.274 1.658-0.455 2.174-0.119 0.336-0.376 0.867-0.527 1.102l-0.094 0.137h-1.246l-0.094-0.39c-0.188-0.795-0.253-1.43-0.202-1.968 0.072-0.758 0.26-1.195 0.701-1.636 0.437-0.437 0.925-0.675 1.719-0.842 0.455-0.094 0.444-0.094 0.419 0.022zM13.833 20.612c0 0.101-0.48 3.211-0.502 3.229-0.011 0.011-0.224-0.029-0.473-0.090l-0.451-0.112-0.17-0.506c-0.509-1.513-0.296-2.319 0.668-2.507 0.188-0.040 0.928-0.051 0.928-0.014zM14.801 20.804c0.152 0.061 0.441 0.195 0.639 0.3l0.361 0.188-0.014 0.654c-0.025 1.43-0.061 2.395-0.083 2.416-0.029 0.029-1.629-0.307-1.676-0.354-0.011-0.011 0.072-0.751 0.181-1.651 0.112-0.896 0.202-1.636 0.202-1.647 0-0.036 0.134-0.007 0.39 0.094zM35.482 20.724c0.022 0.036-0.282 2.384-0.314 2.413-0.011 0.011-0.488 0.058-1.062 0.101l-1.040 0.083-0.235-0.206c-0.415-0.361-1.297-1.434-1.3-1.578 0-0.051 0.961-0.365 1.647-0.538 0.462-0.116 1.167-0.246 1.513-0.278 0.285-0.025 0.773-0.025 0.791 0.004zM36.616 21.085c0.213 0.098 0.567 0.278 0.784 0.401 0.722 0.415 1.921 1.232 1.842 1.257-0.040 0.011-1.716 0.191-2.633 0.282-0.314 0.032-0.581 0.047-0.592 0.036-0.032-0.032 0.148-2.149 0.181-2.149 0.018 0 0.206 0.079 0.419 0.173zM8.116 22.292c1.427 1.17 1.437 1.181 1.625 1.488 0.163 0.264 0.181 0.311 0.126 0.325-0.144 0.047-1.221 0.199-1.687 0.238-0.643 0.058-1.506 0.025-1.965-0.069-0.397-0.083-0.802-0.267-1.011-0.455-0.181-0.166-0.354-0.513-0.383-0.777-0.076-0.65 0.379-1.434 0.997-1.726 0.267-0.126 0.61-0.224 0.762-0.213 0.072 0.004 0.509 0.343 1.535 1.188zM16.733 21.927c0.639 0.462 1.441 1.109 2.156 1.737 0.672 0.592 1.492 1.354 1.513 1.409 0.011 0.036-0.094 0.029-0.972-0.065-0.852-0.094-3.258-0.488-3.5-0.574-0.051-0.018-0.047-0.477 0.018-2.377l0.025-0.643 0.144 0.087c0.079 0.047 0.358 0.238 0.614 0.426zM31.223 22.223c0.596 0.361 1.564 0.993 1.687 1.098 0.058 0.051 0.054 0.061-0.047 0.144-0.148 0.126-0.256 0.325-0.47 0.863-0.101 0.256-0.224 0.509-0.275 0.563-0.159 0.166-0.376 0.228-0.805 0.228-0.209 0-1.708-0.004-3.33-0.011l-2.954-0.007 0.022-0.228c0.014-0.134 0.047-0.249 0.083-0.282 0.163-0.166 2.918-1.607 4.085-2.138 0.524-0.238 1.336-0.592 1.372-0.6 0.011-0.004 0.296 0.163 0.632 0.368zM13.472 24.849c4.699 1.040 8.679 1.773 11.666 2.145 1.564 0.195 1.799 0.209 3.893 0.228l1.994 0.018 0.336-0.094c0.563-0.163 0.907-0.361 1.813-1.037 1.325-0.99 1.983-1.398 2.38-1.474 0.101-0.018 0.672-0.043 1.268-0.051 1.065-0.018 1.080-0.018 0.957 0.047-0.209 0.108-0.513 0.173-1.372 0.293-0.737 0.101-0.838 0.126-1.102 0.246-0.358 0.166-0.968 0.578-1.918 1.293-0.863 0.646-1.123 0.805-1.575 0.968-0.618 0.22-0.755 0.235-2.167 0.235-2.272-0.004-3.543-0.101-6.097-0.473-2.265-0.329-5.949-1.018-7.299-1.365-0.986-0.253-4.345-1.268-4.403-1.333-0.011-0.011 0.022-0.007 0.072 0.004 0.051 0.014 0.748 0.17 1.553 0.35zM14.339 27.139c1.196 0.274 2.637 0.592 3.883 0.856 1.383 0.293 1.307 0.271 1.354 0.358 0.054 0.105-0.065 0.206-0.274 0.238-0.665 0.098-2.954-0.488-4.948-1.268-0.538-0.209-0.964-0.408-0.791-0.365 0.040 0.011 0.39 0.094 0.777 0.181z"></path>
</symbol>
</defs>
</svg>
